<svg width="200" height="200" viewBox="0 0 200 200" fill="none" xmlns="http://www.w3.org/2000/svg">
<path d="M103.558 108.425C103.866 102.867 106.583 97.9754 110.691 94.5004C115.006 90.9157 120.448 88.9681 126.058 89.0004C131.974 89.0004 137.391 91.0837 141.433 94.5004C145.533 97.9754 148.258 102.875 148.566 108.425C148.883 114.142 146.591 119.45 142.558 123.384C138.118 127.619 132.202 129.956 126.066 129.9C119.925 129.961 114.002 127.623 109.558 123.384C105.533 119.45 103.233 114.142 103.558 108.425Z" fill="#DAFCFF"/>
<path d="M67.6999 119.675C67.7416 121.842 68.4416 126.067 69.4749 129.375C71.7274 136.489 75.504 143.027 80.5416 148.533C85.9369 154.483 92.5356 159.219 99.8999 162.425C107.908 165.948 116.567 167.751 125.317 167.717C134.075 167.726 142.737 165.895 150.742 162.342C158.094 159.092 164.683 154.337 170.083 148.383C175.11 142.86 178.88 136.312 181.133 129.192C182.23 125.712 182.928 122.12 183.217 118.483C184.003 107.966 181.411 97.4734 175.817 88.5332C172.402 83.0751 168.043 78.2694 162.942 74.3415L162.95 74.3332L110.875 34.3415L110.742 34.2249C107.317 31.6082 101.567 31.6165 97.8166 34.2415C94.0083 36.8999 93.5833 41.2915 96.9499 44.0749L96.9416 44.0832L118.658 61.7582L52.4666 61.8332H52.3666C46.8999 61.8332 41.6416 65.4332 40.5999 69.9665C39.5333 74.5915 43.2499 78.4249 48.9416 78.4416L48.9333 78.4666L82.4916 78.3999L22.5916 124.367L22.3666 124.542C16.7249 128.867 14.8999 136.058 18.4499 140.617C22.0666 145.25 29.7333 145.25 35.4499 140.633L68.1333 113.892C68.1416 113.892 67.6666 117.5 67.6999 119.675ZM151.683 131.758C144.95 138.625 135.533 142.517 125.325 142.533C115.108 142.55 105.692 138.692 98.9499 131.842C95.7547 128.658 93.2969 124.812 91.7499 120.575C90.2789 116.55 89.7127 112.251 90.0916 107.983C90.4583 103.775 91.6999 99.7582 93.7083 96.1332C95.6749 92.5582 98.3916 89.3416 101.725 86.5999C108.412 81.2253 116.746 78.3179 125.325 78.3666C133.896 78.299 142.229 81.1826 148.925 86.5332C152.25 89.2499 154.967 92.4582 156.933 96.0249C158.933 99.6582 160.183 103.658 160.55 107.867C160.931 112.134 160.368 116.433 158.9 120.458C157.329 124.697 154.868 128.55 151.683 131.758Z" fill="#DAFCFF"/>
</svg>
