<svg width="200" height="200" viewBox="0 0 200 200" fill="none" xmlns="http://www.w3.org/2000/svg">
<path d="M150.016 24.9751H49.9913C43.3604 24.9927 37.0063 27.6352 32.3183 32.3247C27.6304 37.0142 24.99 43.3692 24.9746 50.0001V150.017C24.9944 156.645 27.6367 162.995 32.3242 167.681C37.0117 172.367 43.3633 175.008 49.9913 175.025H150.016C156.643 175.005 162.992 172.364 167.678 167.678C172.364 162.993 175.005 156.643 175.025 150.017V50.0001C175.009 43.3707 172.37 37.0169 167.684 32.3276C162.998 27.6383 156.646 24.9949 150.016 24.9751ZM136.35 130.367C135.083 133.367 133.108 136.033 130.575 138.092C127.578 140.417 124.168 142.154 120.525 143.208C116.441 144.475 111.58 145.111 105.941 145.117H65.7329V57.5751H108.258C116.119 57.564 122.416 59.3584 127.15 62.9584C131.891 66.5918 134.266 71.9751 134.266 79.2751C134.266 83.6862 133.186 87.4557 131.025 90.5834C128.863 93.6945 125.777 96.1057 121.766 97.8168V98.1001C127.116 99.2251 131.241 101.75 133.966 105.7C136.7 109.645 138.069 114.614 138.075 120.608C138.075 123.983 137.425 127.175 136.2 130.167L136.366 130.342V130.367H136.35ZM118.983 108.792C116.416 106.453 112.813 105.289 108.175 105.3H81.1413V132.6H108.25C112.866 132.6 116.508 131.4 119.066 128.975C121.638 126.558 122.927 123.145 122.933 118.733C122.891 114.417 121.633 111.075 119.066 108.792H118.95H118.983ZM115.225 91.1334C117.716 89.0418 118.925 86.0251 118.925 82.1001C118.925 77.7168 117.833 74.5834 115.616 72.8001C113.416 71.0168 110.233 70.0834 106.066 70.0834H81.0579V94.2334H106.066C109.7 94.2418 112.816 93.1751 115.225 91.1334Z" fill="#DAFCFF"/>
</svg>
