<svg width="200" height="200" viewBox="0 0 200 200" fill="none" xmlns="http://www.w3.org/2000/svg">
<path d="M157.833 47.8332C157.833 30.6665 143.916 16.6665 126.666 16.6665H73.3327C56.166 16.6665 42.166 30.5832 42.166 47.8332C42.166 58.7498 47.8327 68.4165 56.3327 73.9165C47.8327 79.4998 42.166 89.0832 42.166 99.9998C42.166 110.917 47.8327 120.583 56.3327 126.083C47.8327 131.667 42.166 141.25 42.166 152.167C42.166 169.417 56.2494 183.333 73.416 183.333C90.5827 183.333 104.999 169.333 104.999 151.917V122.917C110.583 128 117.916 131.167 126.083 131.167H126.666C143.833 131.167 157.833 117.25 157.833 99.9998C157.833 89.0832 152.166 79.4165 143.666 73.9165C152.166 68.3332 157.833 58.7498 157.833 47.8332ZM94.9994 151.917C94.9994 163.667 85.3327 173.25 73.4993 173.25C61.666 173.25 52.2493 163.75 52.2493 152.167C52.2493 140.583 61.666 131.167 73.2494 131.083H94.9994V151.833V151.917ZM94.9994 121.083H73.2494C61.666 121.083 52.2493 111.667 52.2493 99.9998C52.2493 88.3332 61.666 78.9165 73.3327 78.9165H94.9994V121.083ZM94.9994 68.9165H73.3327C61.666 68.9165 52.2493 59.4998 52.2493 47.8332C52.2493 36.1665 61.666 26.7498 73.3327 26.7498H94.9994V68.9165ZM147.749 100.083C147.749 111.75 138.333 121.167 126.666 121.167H126.083C114.416 121.167 104.999 111.75 104.999 100.083C104.999 88.4165 114.416 78.9998 126.083 78.9998H126.666C138.333 78.9998 147.749 88.4165 147.749 100.083ZM126.666 68.9165H104.999V26.7498H126.666C138.333 26.7498 147.749 36.1665 147.749 47.8332C147.749 59.4998 138.333 68.9165 126.666 68.9165Z" fill="#DAFCFF"/>
</svg>
