<svg width="200" height="200" viewBox="0 0 200 200" fill="none" xmlns="http://www.w3.org/2000/svg">
<path d="M128.667 55.083C129.084 55.7497 129.751 56.333 130.167 56.9163C130.584 57.4997 130.917 58.4163 131.251 59.1663C131.604 58.8964 131.882 58.5398 132.057 58.131C132.232 57.7222 132.299 57.2751 132.251 56.833C132.251 56.833 132.251 56.1663 131.667 55.833C131.084 55.4997 130.834 55.1663 130.417 54.833L128.667 55.083ZM46.1673 108.333L36.834 136.333L27.5006 108.333H19.1673C17.6673 120.333 16.7507 133.333 16.334 146.75H22.1673C22.1673 135.5 22.834 125.333 23.584 116.166L33.334 146.5H38.2507L48.334 115.916C49.334 125.5 50.0007 135.666 50.2507 146.5H56.6673C56.6673 134.916 55.334 122.083 53.6673 108.083L46.1673 108.333ZM72.7506 142.333C72.7055 139.69 72.227 137.071 71.334 134.583L66.2506 117.916H59.9173L66.6673 140.083C67.4727 142.201 68.0047 144.414 68.2506 146.666C68.2294 147.471 68.0319 148.261 67.6719 148.981C67.3119 149.701 66.7983 150.333 66.1673 150.833C64.9265 151.919 63.3151 152.486 61.6673 152.416H59.0006V155.833C60.2482 156.348 61.5708 156.658 62.9173 156.75C65.2254 156.534 67.4424 155.742 69.3644 154.446C71.2865 153.15 72.8521 151.392 73.9173 149.333C79.3254 139.754 82.8605 129.234 84.334 118.333H78.5006C77.5265 126.53 75.5967 134.585 72.7506 142.333ZM158.084 108.083H152.001V146.5H170.251V141.833H158.084V108.083ZM141.667 142.25C144.982 137.728 146.577 132.174 146.167 126.583C146.167 113.916 141.167 107.5 131.167 107.5C129.022 107.387 126.88 107.764 124.902 108.601C122.924 109.439 121.163 110.715 119.751 112.333C116.449 116.861 114.855 122.41 115.251 128C114.817 133.259 116.231 138.505 119.251 142.833C120.638 144.311 122.338 145.46 124.227 146.195C126.116 146.931 128.146 147.234 130.167 147.083C131.883 147.08 133.592 146.856 135.251 146.416L144.417 151.75L146.917 147.416L139.834 144C140.489 143.464 141.102 142.879 141.667 142.25ZM130.834 142.25C129.496 142.339 128.16 142.06 126.97 141.443C125.78 140.826 124.782 139.894 124.084 138.75C122.239 135.003 121.433 130.83 121.751 126.666C121.751 117 124.528 112.166 130.084 112.166C131.433 112.08 132.78 112.36 133.982 112.976C135.185 113.592 136.199 114.521 136.917 115.666C138.697 119.375 139.5 123.477 139.251 127.583C139.917 137.416 136.917 142.333 131.084 142.333L130.834 142.25ZM108.334 127.75L100.001 123.083C97.0006 121.416 95.334 119.5 95.334 117.166C95.3428 116.477 95.5044 115.798 95.8069 115.178C96.1095 114.559 96.5457 114.014 97.084 113.583C98.3456 112.549 99.9575 112.041 101.584 112.166C104.14 112.171 106.666 112.711 109.001 113.75L110.501 110.416C107.602 108.529 104.209 107.543 100.751 107.583C97.7081 107.494 94.74 108.532 92.4173 110.5C91.3515 111.429 90.5067 112.585 89.9444 113.882C89.3822 115.18 89.1167 116.586 89.1673 118C89.0617 119.652 89.4095 121.301 90.1732 122.77C90.937 124.239 92.0876 125.471 93.5006 126.333L101.834 130.916C104.751 132.583 106.334 134.5 106.334 136.75C106.35 137.585 106.17 138.412 105.808 139.164C105.446 139.917 104.913 140.574 104.251 141.083C102.673 142.195 100.759 142.725 98.834 142.583C95.9186 142.494 93.0645 141.724 90.5006 140.333L88.834 143.583C92.0208 145.866 95.8309 147.116 99.7506 147.166C103.241 147.352 106.679 146.255 109.417 144.083C110.609 143.058 111.551 141.775 112.172 140.331C112.793 138.886 113.077 137.32 113.001 135.75C113.012 134.12 112.585 132.518 111.764 131.11C110.942 129.703 109.758 128.542 108.334 127.75Z" fill="#DAFCFF"/>
<path d="M181.168 107.417C179.79 105.636 178.162 104.064 176.334 102.75C174.918 101.75 171.668 100.333 171.001 98.5835C172.11 98.4623 173.201 98.2106 174.251 97.8335C175.834 97.4168 177.251 97.8335 178.834 97.0835L181.084 96.5002V96.0835C180.251 95.2502 179.668 94.0835 178.751 93.3335C176.376 91.1871 173.81 89.2624 171.084 87.5835C169.668 86.6668 167.834 86.0835 166.251 85.2502C164.668 84.4168 164.834 84.8335 164.501 84.4168C163.731 83.2971 163.088 82.0953 162.584 80.8335C161.251 78.2502 159.918 75.4168 158.751 72.5002C157.584 69.5835 157.418 68.9168 156.418 67.1668C152.026 59.9364 145.783 54.01 138.334 50.0002C136.469 49.0688 134.475 48.4227 132.418 48.0835H128.918C128.168 47.5949 127.444 47.0663 126.751 46.5002C124.168 44.7502 117.334 41.1668 115.334 45.9168C114.084 49.0002 117.251 51.9168 118.334 53.5002C119.205 54.5726 119.986 55.7154 120.668 56.9168C120.668 57.7502 120.668 58.5835 121.418 59.4168C122.103 61.5447 122.91 63.6315 123.834 65.6668C124.343 66.6381 124.899 67.5837 125.501 68.5002C125.501 69.0002 126.584 69.2502 126.668 70.0835C126.185 71.2023 125.849 72.3787 125.668 73.5835C124.822 76.1357 124.504 78.8333 124.733 81.5121C124.963 84.191 125.734 86.7953 127.001 89.1668C127.751 90.3335 129.501 92.9168 131.834 91.9168C134.168 90.9168 133.501 88.4168 134.084 86.0835V84.8335C134.751 86.0835 135.334 87.3335 136.001 88.6668C137.647 91.0633 139.674 93.1745 142.001 94.9168C143.084 95.7502 144.001 97.1668 145.418 97.6668C145.083 97.331 144.721 97.0244 144.334 96.7502C143.463 95.8938 142.655 94.9747 141.918 94.0002C139.948 91.3668 138.193 88.5801 136.668 85.6668L135.001 80.8335C135.001 80.2502 135.001 79.4168 134.251 79.1668C133.359 80.1141 132.602 81.1796 132.001 82.3335C131.225 84.5912 130.776 86.9485 130.668 89.3335C129.168 89.3335 128.668 87.4168 128.084 86.1668C126.822 82.1241 126.822 77.7928 128.084 73.7502C128.084 72.7502 129.834 69.6668 129.251 68.7502C128.668 67.8335 128.084 67.4168 127.584 66.6668C126.921 65.7601 126.362 64.7817 125.918 63.7502C124.751 61.0835 124.251 58.2502 123.001 55.4168C122.353 54.1424 121.571 52.9411 120.668 51.8335C119.727 50.6878 118.891 49.4607 118.168 48.1668C118.027 47.8671 117.953 47.5398 117.953 47.2085C117.953 46.8772 118.027 46.5499 118.168 46.2502C118.213 46.1001 118.299 45.9658 118.417 45.8626C118.535 45.7594 118.68 45.6916 118.834 45.6668C119.418 45.1668 121.168 45.6668 121.751 46.0835C123.355 46.7016 124.891 47.4836 126.334 48.4168C126.991 49.0656 127.752 49.6007 128.584 50.0002H129.501C131.001 50.0002 132.668 50.0002 134.084 50.5002C136.42 51.3321 138.657 52.4222 140.751 53.7502C146.884 57.6707 151.884 63.1297 155.251 69.5835C155.834 70.6668 156.001 71.6668 156.584 72.7502C157.168 73.8335 158.751 77.3335 159.668 79.5835C160.554 81.7793 161.671 83.8745 163.001 85.8335C163.668 86.7502 166.501 87.2502 167.751 87.8335C169.001 88.4168 170.084 88.5835 170.918 89.0835L175.584 92.2502C176.334 92.8335 178.668 94.0002 178.751 94.9168C175.697 94.7171 172.635 95.1424 169.751 96.1668C169.084 96.1668 168.001 96.1668 167.834 97.3335C167.668 98.5002 168.251 98.3335 168.584 98.8335C169.253 99.8863 170.067 100.84 171.001 101.667L174.001 103.833C175.834 104.917 177.834 105.583 179.584 106.667C181.334 107.75 181.668 108.167 182.668 108.833C183.668 109.5 183.501 109.833 184.168 110.083C184.168 109.667 183.751 109.083 183.418 108.583L181.168 107.417ZM173.251 142.583H174.584V146.5H175.668V142.583H177.001V141.833H173.251V142.583ZM180.751 145L179.418 141.833H178.001V146.5H178.918V142.917H179.001L180.334 146.5H181.001L182.418 142.917V146.5H183.334V141.833H181.918L180.751 145Z" fill="#DAFCFF"/>
</svg>
