<svg width="200" height="200" viewBox="0 0 200 200" fill="none" xmlns="http://www.w3.org/2000/svg">
<path d="M154.166 79.2497C147.912 77.1054 142.394 73.2338 138.249 68.083C133.675 62.3516 127.85 57.7425 121.22 54.6082C114.591 51.4739 107.332 49.8976 99.9994 49.9997C90.1357 49.3012 80.3709 52.3434 72.6494 58.5206C64.9279 64.6978 59.8164 73.5567 58.3327 83.333C61.255 78.4434 65.6531 74.6069 70.8943 72.3757C76.1355 70.1444 81.9494 69.6335 87.4994 70.9164C93.7425 73.1237 99.2519 77.0177 103.416 82.1664C108.016 87.852 113.852 92.4135 120.48 95.5038C127.108 98.5941 134.354 100.132 141.666 99.9997C151.53 100.698 161.294 97.656 169.016 91.4788C176.737 85.3016 181.849 76.4427 183.333 66.6664C180.463 71.6145 176.079 75.5089 170.827 77.7747C165.576 80.0405 159.734 80.5576 154.166 79.2497ZM45.8327 120.75C52.0864 122.894 57.6049 126.766 61.7494 131.916C66.3239 137.648 72.1489 142.257 78.7785 145.391C85.4082 148.525 92.6669 150.102 99.9994 150C109.863 150.698 119.628 147.656 127.349 141.479C135.071 135.302 140.182 126.443 141.666 116.666C138.744 121.556 134.346 125.392 129.104 127.624C123.863 129.855 118.049 130.366 112.499 129.083C106.256 126.876 100.747 122.982 96.5827 117.833C91.9707 112.162 86.1323 107.61 79.5069 104.521C72.8816 101.432 65.6419 99.8862 58.3327 99.9997C48.4691 99.3012 38.7042 102.343 30.9827 108.521C23.2612 114.698 18.1497 123.557 16.666 133.333C19.5352 128.385 23.9194 124.491 29.1713 122.225C34.4232 119.959 40.2644 119.442 45.8327 120.75Z" fill="#DAFCFF"/>
</svg>
