<svg width="200" height="200" viewBox="0 0 200 200" fill="none" xmlns="http://www.w3.org/2000/svg">
<path d="M174.334 42.4998L140.417 48.6665L145.834 29.9165C146.75 26.7498 146.167 23.4165 144.167 20.8332C142.25 18.2498 139.167 16.6665 135.917 16.6665H135.084L133.917 16.8332L78.9171 27.5832C74.2504 28.4998 70.8337 32.4165 70.5837 37.1665L69.8337 50.3332L25.7504 42.4165C24.9933 42.2896 24.2158 42.3787 23.5071 42.6736C22.7984 42.9684 22.1871 43.4571 21.7434 44.0834C21.2997 44.7098 21.0416 45.4486 20.9986 46.215C20.9556 46.9814 21.1295 47.7444 21.5004 48.4165L97.2504 181.25C98.8337 184 102.75 184 104.25 181.25L178.5 48.4165C180.167 45.4165 177.584 41.8332 174.25 42.4998H174.334ZM80.5837 35.8332L135.584 25.0832H136C137.334 25.0832 138.334 26.3332 137.917 27.6665L127.667 63.3332C127.667 63.3332 127.584 63.9998 127.667 64.3332C127.667 64.4165 127.75 64.4998 127.834 64.5832C127.834 64.7498 128 64.9998 128.167 65.1665C128.167 65.2498 128.334 65.3332 128.417 65.4165C128.584 65.4998 128.75 65.6665 128.917 65.7498C129 65.7498 129.167 65.7498 129.334 65.8332C129.5 65.8332 129.584 65.9165 129.75 65.9165H130.167L145.917 62.9165H146.75C146.917 62.9165 147 62.9165 147.167 62.9998C147.334 63.0832 147.5 63.2498 147.667 63.4165L147.917 63.6665C148.084 63.8332 148.084 64.0832 148.167 64.3332C148.167 64.4165 148.25 64.5832 148.25 64.6665C148.25 64.9998 148.25 65.4165 148.084 65.7498L103.25 155.167L102.417 156.417C102.167 156.833 101.75 157.083 101.417 157.167H99.9171C99.5678 157.01 99.2764 156.747 99.0837 156.417C99.0837 156.417 99.0004 156.25 98.9171 156.166C98.7504 155.833 98.5837 155.416 98.7504 154.916L106 119.917V118.917C106 118.833 105.917 118.75 105.834 118.666C105.754 118.481 105.641 118.312 105.5 118.167C105.5 118.083 105.334 118 105.25 117.916C105.084 117.833 104.917 117.666 104.75 117.666C104.667 117.666 104.5 117.666 104.417 117.583H104.167C104 117.583 103.75 117.583 103.584 117.666L94.1671 120.5H93.0004C92.8337 120.5 92.6671 120.333 92.5004 120.25C92.4171 120.25 92.3337 120.083 92.2504 120C92.0837 119.833 92.0004 119.667 91.9171 119.5C91.9171 119.417 91.8337 119.333 91.7504 119.25C91.6671 118.917 91.5837 118.583 91.7504 118.25L96.3337 95.9998C96.4171 95.4165 96.3337 94.8332 95.9171 94.4165C95.9171 94.4165 95.9171 94.3332 95.8337 94.2498C95.5004 93.8332 95.0004 93.6665 94.5004 93.5832H93.8337L78.5004 97.0832H77.9171C76.8337 97.0832 75.9171 96.0832 76.0004 94.9165L79.4171 37.8332C79.4171 36.9165 80.1671 36.1665 81.0837 35.9998L80.5837 35.8332Z" fill="#DAFCFF"/>
</svg>
