{
  "asset": {
    "generator": "Khronos glTF Blender I/O v4.3.47",
    "version": "2.0"
  },
  "scene": 0,
  "scenes": [
    {
      "name": "Scene",
      "nodes": [0]
    }
  ],
  "nodes": [
    {
      "mesh": 0,
      "name": "B\u00e9zierCurve",
      "rotation": [0.7071068286895752, 0, 0, 0.7071067690849304],
      "scale": [3.7223927974700928, 3.7223927974700928, 3.7223927974700928],
      "translation": [0, 8.376575469970703, 0]
    }
  ],
  "materials": [
    {
      "doubleSided": true,
      "name": "Material.001",
      "pbrMetallicRoughness": {
        "baseColorFactor": [0.7010969519615173, 0.9734460711479187, 1, 1],
        "metallicFactor": 0,
        "roughnessFactor": 0.5
      }
    }
  ],
  "meshes": [
    {
      "name": "Mesh",
      "primitives": [
        {
          "attributes": {
            "POSITION": 0,
            "NORMAL": 1
          },
          "indices": 2,
          "material": 0
        }
      ]
    }
  ],
  "accessors": [
    {
      "bufferView": 0,
      "componentType": 5126,
      "count": 1092,
      "max": [2.499986171722412, 0, 2.238922119140625],
      "min": [-2.499986171722412, -1.037516713142395, -2.2361087799072266],
      "type": "VEC3"
    },
    {
      "bufferView": 1,
      "componentType": 5126,
      "count": 1092,
      "type": "VEC3"
    },
    {
      "bufferView": 2,
      "componentType": 5123,
      "count": 2763,
      "type": "SCALAR"
    }
  ],
  "bufferViews": [
    {
      "buffer": 0,
      "byteLength": 13104,
      "byteOffset": 0,
      "target": 34962
    },
    {
      "buffer": 0,
      "byteLength": 13104,
      "byteOffset": 13104,
      "target": 34962
    },
    {
      "buffer": 0,
      "byteLength": 5526,
      "byteOffset": 26208,
      "target": 34963
    }
  ],
  "buffers": [
    {
      "byteLength": 31736,
      "uri": "m-3d-logo.bin"
    }
  ]
}
