<svg width="200" height="200" viewBox="0 0 200 200" fill="none" xmlns="http://www.w3.org/2000/svg">
<path d="M17.9166 139.833H31C31.2826 139.836 31.5566 139.736 31.7712 139.552C31.9858 139.368 32.1263 139.113 32.1666 138.833L35.0833 123.667H45.25C49.5057 123.77 53.7514 123.208 57.8333 122C61.1389 120.904 64.1571 119.081 66.6666 116.667C68.9164 114.64 70.8046 112.244 72.25 109.583C73.6806 106.98 74.693 104.168 75.25 101.25C76.1354 98.1922 76.2874 94.9688 75.6938 91.8414C75.1001 88.7139 73.7775 85.7705 71.8333 83.2499C69.5806 80.9608 66.8541 79.1928 63.8453 78.0699C60.8364 76.9469 57.6182 76.4964 54.4166 76.7499H29.4166C29.1168 76.7634 28.8302 76.8777 28.6034 77.0743C28.3765 77.2709 28.2226 77.5383 28.1666 77.8332L16.6666 138.333C16.546 138.684 16.546 139.065 16.6666 139.417C16.8257 139.582 17.0225 139.706 17.2403 139.779C17.458 139.852 17.6901 139.87 17.9166 139.833ZM41.6666 88.4999H50C51.5854 88.2869 53.1974 88.3908 54.7423 88.8057C56.2873 89.2205 57.7345 89.938 59 90.9165C60.4166 92.4165 60.6666 95.2499 59.9166 99.2499C59.506 102.831 57.8199 106.144 55.1666 108.583C51.8662 110.673 47.9778 111.638 44.0833 111.333H37.4166L41.6666 88.4999ZM123.333 80.5832C118.822 77.2664 113.236 75.7511 107.667 76.3332H97.75L100.5 61.6665C100.581 61.4975 100.623 61.3124 100.623 61.1249C100.623 60.9373 100.581 60.7522 100.5 60.5832C100.204 60.4749 99.8793 60.4749 99.5833 60.5832H86.5C86.2174 60.5803 85.9433 60.6801 85.7288 60.864C85.5142 61.0479 85.3737 61.3035 85.3333 61.5832L73.8333 122.167C73.753 122.321 73.711 122.492 73.711 122.667C73.711 122.841 73.753 123.012 73.8333 123.167C73.9316 123.32 74.0672 123.447 74.2274 123.534C74.3877 123.622 74.5674 123.667 74.75 123.667H87.5833C87.8788 123.667 88.1636 123.556 88.3801 123.355C88.5967 123.154 88.7289 122.878 88.75 122.583L95.1666 88.6665H104.417C108.167 88.6665 109.5 89.4999 109.917 89.9999C110.26 90.8177 110.438 91.696 110.438 92.5832C110.438 93.4704 110.26 94.3487 109.917 95.1665L104.833 122.167C104.753 122.321 104.711 122.492 104.711 122.667C104.711 122.841 104.753 123.012 104.833 123.167C104.937 123.315 105.073 123.438 105.233 123.525C105.392 123.612 105.569 123.66 105.75 123.667H118.75C119.05 123.653 119.336 123.539 119.563 123.342C119.79 123.146 119.944 122.878 120 122.583L125.333 94.2499C126.194 91.9905 126.462 89.5485 126.112 87.1563C125.762 84.7641 124.805 82.5013 123.333 80.5832ZM161 76.3332H134.917C134.763 76.3219 134.609 76.3409 134.463 76.3893C134.318 76.4377 134.183 76.5144 134.066 76.6151C133.95 76.7157 133.855 76.8384 133.787 76.9759C133.718 77.1134 133.677 77.2632 133.667 77.4165L121.5 138.333C121.424 138.504 121.385 138.688 121.385 138.875C121.385 139.061 121.424 139.246 121.5 139.417C121.612 139.55 121.752 139.657 121.911 139.729C122.07 139.801 122.242 139.837 122.417 139.833H136C136.297 139.857 136.591 139.767 136.824 139.581C137.056 139.396 137.208 139.128 137.25 138.833L140.333 123.667H150.917C155.309 123.761 159.69 123.199 163.917 122C167.555 120.988 170.917 119.164 173.75 116.667C176.077 114.649 178.049 112.254 179.583 109.583C181.031 106.979 182.07 104.169 182.667 101.25C183.575 98.1894 183.731 94.9548 183.122 91.8211C182.512 88.6873 181.156 85.747 179.167 83.2499C176.814 80.8588 173.973 79.0033 170.838 77.8097C167.703 76.616 164.347 76.1124 161 76.3332ZM166.167 99.4165C165.668 103.025 163.895 106.336 161.167 108.75C157.747 110.849 153.75 111.812 149.75 111.5H143.083L147.583 88.4999H155.917C159.248 88.0916 162.61 88.9546 165.333 90.9165C166.667 92.4165 166.667 95.2499 166.167 99.4165Z" fill="#DAFCFF"/>
</svg>
