<svg width="200" height="200" viewBox="0 0 200 200" fill="none" xmlns="http://www.w3.org/2000/svg">
<path d="M100.001 78.8331C98.0472 78.8331 96.113 79.2178 94.3082 79.9654C92.5035 80.7129 90.8637 81.8086 89.4824 83.1899C88.1012 84.5711 87.0055 86.2109 86.2579 88.0157C85.5104 89.8204 85.1257 91.7547 85.1257 93.7081C85.1257 95.6615 85.5104 97.5958 86.2579 99.4005C87.0055 101.205 88.1012 102.845 89.4824 104.226C90.8637 105.608 92.5035 106.703 94.3082 107.451C96.113 108.198 98.0472 108.583 100.001 108.583C101.954 108.583 103.888 108.198 105.693 107.451C107.498 106.703 109.138 105.608 110.519 104.226C111.9 102.845 112.996 101.205 113.743 99.4005C114.491 97.5958 114.876 95.6615 114.876 93.7081C114.876 91.7547 114.491 89.8204 113.743 88.0157C112.996 86.2109 111.9 84.5711 110.519 83.1899C109.138 81.8086 107.498 80.7129 105.693 79.9654C103.888 79.2178 101.954 78.8331 100.001 78.8331ZM58.3507 123.283L55.059 122.441C30.609 116.266 16.584 105.766 16.584 93.6747C16.584 81.5831 30.6173 71.0831 55.059 64.9081L58.3507 64.0747L59.2757 67.3331C61.7466 75.864 64.9127 84.1779 68.7423 92.1914L69.4507 93.6747L68.7423 95.1581C64.909 103.183 61.734 111.5 59.2757 120.033L58.3507 123.283ZM53.5423 72.4914C34.9673 77.7247 23.559 85.7081 23.559 93.6747C23.559 101.625 34.959 109.616 53.5423 114.841C55.8201 107.597 58.5562 100.541 61.7507 93.6747C58.5359 86.8085 55.7934 79.731 53.5423 72.4914ZM141.642 123.283L140.726 120.016C138.249 111.484 135.08 103.167 131.251 95.1497L130.542 93.6747L131.251 92.1831C135.084 84.1747 138.242 75.8497 140.726 67.3164L141.642 64.0664L144.934 64.8997C169.392 71.0747 183.409 81.5664 183.409 93.6747C183.409 105.783 169.384 116.266 144.934 122.441L141.642 123.283ZM138.226 93.6747C141.559 100.891 144.334 107.991 146.451 114.841C165.034 109.616 176.442 101.625 176.442 93.6747C176.442 85.7081 165.042 77.7331 146.451 72.4914C144.171 79.7233 141.423 86.7993 138.226 93.6747Z" fill="#DAFCFF"/>
<path d="M53.4919 72.4585L52.5753 69.2085C45.6919 44.9752 47.7753 27.6168 58.3003 21.5668C68.5919 15.6085 85.1503 22.6502 102.492 40.4418L104.859 42.8751L102.492 45.3001C96.3402 51.7126 90.7111 58.6068 85.6586 65.9168L84.7169 67.2668L83.0836 67.4002C74.2137 68.0988 65.4153 69.5173 56.7753 71.6418L53.4919 72.4585ZM66.6753 26.3835C64.803 26.3835 63.1669 26.7863 61.7669 27.5918C54.8669 31.5668 53.6503 45.4085 58.4003 64.0918C65.828 62.4418 73.3169 61.2835 80.8669 60.6168C85.2368 54.4164 90.0052 48.5068 95.1419 42.9252C84.2836 32.3668 74.0336 26.3835 66.6753 26.3835ZM133.317 167.917C123.417 167.917 110.7 160.45 97.5003 146.9L95.1419 144.475L97.5003 142.058C103.656 135.638 109.288 128.736 114.342 121.417L115.275 120.083L116.892 119.925C125.765 119.24 134.567 117.827 143.209 115.7L146.5 114.867L147.425 118.125C154.275 142.342 152.2 159.725 141.692 165.775C139.137 167.213 136.248 167.952 133.317 167.917ZM104.859 144.417C115.709 154.975 125.967 160.967 133.317 160.967C135.2 160.961 136.836 160.558 138.225 159.758C145.134 155.775 146.359 141.908 141.592 123.225C134.175 124.886 126.681 126.05 119.109 126.717C114.757 132.927 109.996 138.84 104.859 144.417Z" fill="#DAFCFF"/>
<path d="M146.5 72.4584L143.209 71.6334C134.567 69.5012 125.765 68.0825 116.892 67.3917L115.275 67.2501L114.342 65.9001C109.298 58.581 103.666 51.6859 97.5002 45.2834L95.1419 42.8584L97.5002 40.4417C114.834 22.6584 131.384 15.6167 141.692 21.5667C152.209 27.6251 154.3 44.9834 147.425 69.2084L146.5 72.4584ZM119.109 60.6167C127.059 61.3251 134.592 62.5167 141.592 64.0917C146.35 45.4084 145.134 31.5667 138.225 27.5834C131.359 23.6084 118.434 29.6917 104.859 42.9251C110.003 48.5084 114.753 54.4056 119.109 60.6167ZM66.6752 167.917C63.7438 167.952 60.8549 167.213 58.3002 165.775C47.7752 159.725 45.6919 142.35 52.5669 118.125L53.4669 114.867L56.7586 115.7C64.7919 117.725 73.6419 119.15 83.0752 119.925L84.6919 120.083L85.6336 121.417C90.6669 128.733 96.3002 135.642 102.467 142.058L104.834 144.475L102.467 146.9C89.2752 160.458 76.5586 167.917 66.6752 167.917ZM58.4002 123.233C53.6502 141.917 54.8669 155.783 61.7669 159.767C68.6419 163.683 81.5252 157.642 95.1419 144.417C90.0052 138.835 85.2368 132.925 80.8669 126.725C73.3102 126.049 65.8055 124.883 58.4002 123.233Z" fill="#DAFCFF"/>
<path d="M100 127.609C94.275 127.609 88.4 127.367 82.5 126.875L80.8667 126.734L79.925 125.384C76.6003 120.598 73.4699 115.68 70.5417 110.642C67.6372 105.589 64.9378 100.421 62.45 95.1504L61.75 93.6754L62.45 92.1837C64.9389 86.917 67.6361 81.7559 70.5417 76.7004C73.4333 71.7337 76.5917 66.767 79.925 61.9504L80.8667 60.617L82.5 60.467C94.1405 59.4862 105.843 59.4862 117.483 60.467L119.1 60.6254L120.042 61.9587C126.711 71.5288 132.565 81.6421 137.542 92.192L138.233 93.6837L137.542 95.1587C132.565 105.709 126.711 115.822 120.042 125.392L119.1 126.742L117.483 126.884C111.6 127.359 105.717 127.609 100 127.609ZM84.7167 120.075C95.0083 120.85 104.992 120.85 115.275 120.075C121.015 111.668 126.118 102.844 130.542 93.6754C126.132 84.4997 121.028 75.674 115.275 67.2754C105.104 66.4961 94.8879 66.4961 84.7167 67.2754C78.9633 75.674 73.8596 84.4997 69.45 93.6754C73.8871 102.837 78.9897 111.66 84.7167 120.075Z" fill="#DAFCFF"/>
</svg>
