<svg width="200" height="200" viewBox="0 0 200 200" fill="none" xmlns="http://www.w3.org/2000/svg">
<path d="M99.9994 16.6665C146.016 16.6665 183.333 53.9832 183.333 99.9998C183.333 146.017 146.016 183.333 99.9994 183.333C53.9827 183.333 16.666 146.017 16.666 99.9998C16.666 53.9832 53.9827 16.6665 99.9994 16.6665ZM83.441 127.767C84.6577 132.242 84.5244 136.425 83.266 140.208L82.816 141.458C81.7638 143.978 80.2773 146.294 78.4244 148.3C73.5744 153.575 66.8077 155.567 63.9077 153.892C60.7827 152.067 62.341 144.625 67.966 138.683C74.016 132.308 82.6827 128.2 82.6827 128.2V128.183L83.441 127.767ZM152.258 52.3415C148.491 37.5332 123.949 32.6582 100.716 40.9165C86.916 45.8248 71.941 53.5415 61.191 63.6082C48.391 75.5582 46.3577 85.9748 47.191 90.3248C50.1494 105.683 71.1994 115.725 79.8577 123.175V123.217C77.2994 124.458 58.6244 133.833 54.2577 143.533C49.566 153.742 54.991 161.042 58.5327 161.967C69.4744 164.992 80.716 159.467 86.766 150.517C92.591 141.758 92.0827 130.517 89.5744 124.992C93.016 124.058 97.066 123.642 102.274 124.275C116.866 125.933 119.783 135.108 119.141 138.858C118.524 142.6 115.508 144.783 114.466 145.408C113.424 146.033 113.108 146.25 113.208 146.667C113.316 147.283 113.841 147.283 114.666 147.192C115.816 146.983 122.283 144.067 122.591 136.967C122.899 128.017 114.358 118.025 99.1494 118.217C92.8994 118.333 88.9327 118.85 86.1244 120C85.9339 119.707 85.684 119.457 85.391 119.267C76.016 109.158 58.616 102.075 59.3494 88.6415C59.5577 83.7415 61.3244 70.8332 92.6827 55.2082C118.416 42.3915 138.941 45.9415 142.491 53.7498C147.574 64.8832 131.541 85.6248 104.774 88.6415C94.566 89.7915 89.2577 85.8332 87.891 84.3665C86.441 82.7998 86.241 82.6998 85.716 83.0248C84.8744 83.4415 85.3994 84.7915 85.716 85.6332C86.5494 87.7082 89.7744 91.3665 95.4077 93.2332C100.299 94.7998 112.274 95.7248 126.658 90.1082C142.799 83.8665 155.399 66.4582 151.758 51.8748L152.258 52.3415Z" fill="#DAFCFF"/>
</svg>
