<svg width="200" height="200" viewBox="0 0 200 200" fill="none" xmlns="http://www.w3.org/2000/svg">
<path d="M26.6667 24.25C25.75 24.25 25 25 25 26C25 26.1667 25 26.25 25 26.4167L43.25 100.333C43.25 100.333 43.25 100.5 43.25 100.583L61.5 174.5C61.75 175.417 62.6667 176 63.5833 175.75C63.8333 175.75 64.1667 175.5 64.3333 175.333L174.417 69.5C175.083 68.8333 175.083 67.75 174.417 67.0833C174.25 66.8333 173.917 66.75 173.667 66.6667L137.167 56.1667C137.167 56.1667 136.667 55.9167 136.417 55.9167L64.4167 35.1667C64.4167 35.1667 63.8333 34.9167 63.5 34.9167L27 24.4167C27 24.4167 26.6667 24.4167 26.5 24.4167L26.6667 24.25ZM29 28.4167L60.25 37.4167L36.75 60L28.9167 28.4167H29ZM65.9167 39.0833L96.5833 47.9167L73.5833 70.0833L65.9167 39.0833ZM62.5833 39.8333L70.25 70.9167L39.5 62.0833L62.5833 39.8333ZM102.25 49.5L133 58.3333L109.917 80.5833L102.25 49.4167V49.5ZM99 50.3333L106.583 81.25L75.9167 72.5L98.9167 50.3333H99ZM138.75 60L170 69L146.583 91.5833L138.833 60H138.75ZM135.417 60.75L143.083 91.8333L112.333 83L135.417 60.75ZM38 65.1667L69.3333 74.1667L45.8333 96.8333L38 65.25V65.1667ZM74.9167 75.75L105.667 84.5833L82.5833 106.833L74.9167 75.75ZM71.6667 76.5833L79.5 108.25L48.1667 99.25L71.6667 76.5833ZM111.25 86.25L142.583 95.25L119.083 117.917L111.25 86.25ZM108 87.0833L115.833 118.75L84.5833 109.75L108.083 87.1667L108 87.0833ZM47.25 102.5L78 111.333L54.9167 133.583L47.25 102.5ZM84.1667 113.167L114.833 122L91.8333 144.167L84.1667 113.167ZM80.75 113.417L88.4167 144.5L57.6667 135.667L80.75 113.417ZM56.1667 138.75L87.9167 147.833L64.0833 170.833L56.1667 138.75Z" fill="#DAFCFF"/>
</svg>
