<svg width="200" height="200" viewBox="0 0 200 200" fill="none" xmlns="http://www.w3.org/2000/svg">
<path d="M165.758 64.9C171.782 75.9209 174.931 88.2819 174.916 100.842C174.916 113.951 171.476 126.831 164.939 138.195C158.402 149.559 148.998 159.009 137.666 165.6L160.549 99.4416C164.824 88.7583 166.249 80.2 166.249 72.6166C166.256 70.0364 166.092 67.4585 165.758 64.9ZM110.333 65.625C113.191 65.4855 116.043 65.2408 118.883 64.8916C122.924 64.3666 122.449 58.4333 118.416 58.65C118.416 58.65 106.224 59.5833 98.416 59.5833C91.0244 59.5833 78.6244 58.5416 78.6244 58.5416C74.566 58.3416 74.041 64.4833 78.116 64.6916C78.116 64.6916 81.8577 65.125 85.9327 65.3166L97.591 97.3L81.1327 146.458L53.8493 65.425C56.7112 65.2811 59.5681 65.0504 62.416 64.7333C66.4743 64.2083 65.9994 58.275 61.9577 58.5083C61.9577 58.5083 49.8327 59.4666 41.9994 59.4666C40.6077 59.4666 38.9577 59.4083 37.2077 59.3583C50.7744 39.3833 73.8494 25.9416 99.9994 25.9416C119.508 25.9416 137.258 33.3916 150.591 45.6083C150.274 45.5916 149.958 45.5416 149.616 45.5416C142.258 45.5416 137.033 51.9583 137.033 58.8416C137.033 65.0166 140.591 70.25 144.391 76.4083C147.249 81.4166 150.574 87.825 150.574 97.0833C150.574 103.442 148.116 110.933 144.866 121.242L137.399 146.133L110.316 65.5083L110.333 65.625ZM99.9994 175.725C92.8351 175.73 85.7072 174.709 78.8327 172.692L101.308 107.375L124.333 170.475C124.505 170.842 124.685 171.186 124.874 171.508C116.881 174.314 108.471 175.745 99.9994 175.742M25.0827 100.842C25.0604 90.336 27.2703 79.9456 31.566 70.3583L67.291 168.267C54.6347 162.125 43.9634 152.543 36.4988 140.619C29.0342 128.695 25.0779 114.91 25.0827 100.842ZM99.9994 17.5083C54.0577 17.5083 16.666 54.9 16.666 100.842C16.666 146.783 54.0577 184.175 99.9994 184.175C145.941 184.175 183.333 146.783 183.333 100.842C183.333 54.9 145.941 17.5083 99.9994 17.5083Z" fill="#DAFCFF"/>
</svg>
