<svg width="200" height="200" viewBox="0 0 200 200" fill="none" xmlns="http://www.w3.org/2000/svg">
<path d="M65.2498 98.0003L63.0831 107.584C62.9998 108.084 62.4165 108.5 61.8331 108.5H59.1665C59.1665 108.5 58.8331 108.667 58.7498 108.834C56.3331 117.084 52.9998 122.834 48.6665 126.25C44.9165 129.167 40.3331 130.5 34.2498 130.5C28.7498 130.5 25.0831 128.75 21.9165 125.25C17.7498 120.667 16.0831 113.084 17.0831 104C18.9165 86.917 27.8331 69.667 44.9165 69.667C50.0831 69.667 54.1665 71.2503 56.9998 74.417C59.9998 77.8337 61.4998 82.917 61.4998 89.5837C61.4998 90.167 60.9998 90.667 60.4165 90.667H47.9165C47.4998 90.667 47.0831 90.2503 47.0831 89.8337C46.9998 85.2503 45.5831 83.0003 42.9165 83.0003C38.0831 83.0003 35.3331 89.5003 33.8331 93.0837C31.7498 98.0837 30.6665 103.584 30.9165 109.084C30.9998 111.584 31.4165 115.167 33.8331 116.667C35.9998 118 38.9998 117.084 40.8331 115.667C42.6665 114.25 44.1665 111.667 44.7498 109.417C44.8331 109.084 44.8331 108.834 44.7498 108.75C44.6665 108.667 44.4165 108.584 44.2498 108.584H40.9998C40.9998 108.584 40.3331 108.417 40.0831 108.167C39.9165 108 39.8331 107.667 39.9165 107.417L42.0831 97.917C42.1665 97.417 42.6665 97.0837 43.1665 97.0003H64.2498C64.2498 97.0003 64.3331 97.0003 64.4165 97.0003C64.9998 97.0003 65.3331 97.5837 65.3331 98.167L65.2498 98.0003Z" fill="#DAFCFF"/>
<path d="M101.5 87.0833C101.5 87.6667 101 88.1667 100.416 88.1667H88.9163C88.1663 88.1667 87.4997 87.5833 87.4997 86.8333C87.4997 83.5 86.333 81.8333 83.9997 81.8333C81.6663 81.8333 80.083 83.3333 80.083 85.8333C80.083 88.6667 81.6663 91.25 86.2497 95.6667C92.2497 101.333 94.6663 106.333 94.583 113C94.4163 123.75 87.083 130.667 75.9997 130.667C70.333 130.667 65.9997 129.167 63.1663 126.167C60.2497 123.167 58.9163 118.667 59.1663 112.917C59.1663 112.333 59.6663 111.833 60.2497 111.833H72.1663C72.1663 111.833 72.833 112 72.9997 112.25C73.1663 112.5 73.2497 112.75 73.2497 113C73.083 115.083 73.4997 116.583 74.333 117.5C74.833 118.083 75.583 118.333 76.4997 118.333C78.6663 118.333 79.9997 116.75 79.9997 114.083C79.9997 111.75 79.333 109.667 75.2497 105.5C69.9997 100.417 65.333 95.1667 65.4997 86.9167C65.583 82.0833 67.4997 77.75 70.833 74.5833C74.4163 71.25 79.2497 69.5 84.9163 69.5C90.583 69.5 94.9163 71.1667 97.6663 74.3333C100.333 77.3333 101.583 81.6667 101.5 87.1667V87.0833Z" fill="#DAFCFF"/>
<path d="M137.249 128.583V71.5833C137.333 71 136.833 70.5 136.249 70.5H118.416C117.833 70.5 117.583 71 117.416 71.3333L91.5826 128.167C91.3326 128.833 91.8326 129.583 92.5826 129.583H105.083C105.749 129.583 106.166 129.417 106.416 128.917L108.916 123C109.249 122.25 109.249 122.167 110.166 122.167H122.083C122.916 122.167 122.916 122.167 122.916 123L122.666 128.5C122.666 129.083 123.166 129.583 123.749 129.583H136.333C136.333 129.583 136.916 129.417 137.166 129.25C137.333 129.083 137.416 128.75 137.416 128.5L137.249 128.583ZM115.166 109.583C115.166 109.583 114.999 109.583 114.916 109.583C114.749 109.583 114.666 109.417 114.666 109.25C114.666 109.167 114.666 109.083 114.749 108.917L123.666 86.8333C123.666 86.8333 123.833 86.4167 123.916 86.1667C124.083 85.8333 124.249 85.8333 124.333 86.0833C124.333 86.25 123.333 108.75 123.333 108.75C123.249 109.583 123.249 109.667 122.416 109.667H115.249V109.583H115.166Z" fill="#DAFCFF"/>
<path d="M162.583 70.5003H153.083C152.583 70.5003 152 70.7503 151.917 71.3337L138.75 128.5C138.75 128.5 138.75 129 138.917 129.25C139.167 129.5 139.5 129.667 139.833 129.667H151.667C152.333 129.667 152.75 129.334 152.833 128.834L154.25 122.334C154.333 121.834 154.25 121.417 153.75 121.167C153.5 121.084 153.333 120.917 153.083 120.834L151 119.75L149 118.667L148.25 118.25C148.25 118.25 148 118.084 148.083 117.917C148.083 117.667 148.25 117.5 148.5 117.5H155C156.917 117.5 158.917 117.417 160.75 117.084C174.167 114.584 183.083 103.834 183.333 89.2503C183.583 76.7503 176.583 70.417 162.667 70.417L162.583 70.5003ZM159.333 104.5H159.083C158.5 104.5 158.417 104.5 158.417 104.5L162.167 88.0003C162.25 87.5003 162.25 87.2503 162 87.0837C161.583 86.917 156.167 84.0003 156.167 84.0003C156 84.0003 155.917 83.8337 156 83.667C156 83.417 156.167 83.2503 156.417 83.2503H165.083C167.75 83.2503 169.25 85.7503 169.167 89.8337C169.083 96.917 165.667 104.334 159.417 104.584L159.333 104.5Z" fill="#DAFCFF"/>
</svg>
