<svg width="200" height="200" viewBox="0 0 200 200" fill="none" xmlns="http://www.w3.org/2000/svg">
<path d="M25 25H175V175H25V25ZM162.708 139.225C161.617 132.383 157.158 126.633 143.942 121.267C139.342 119.108 134.233 117.617 132.7 114.15C132.133 112.083 132.05 110.967 132.417 109.742C133.358 105.708 138.142 104.5 141.892 105.617C144.333 106.367 146.583 108.242 147.992 111.25C154.45 107.025 154.45 107.025 158.958 104.217C157.267 101.6 156.425 100.458 155.3 99.3333C151.358 94.9333 146.108 92.6833 137.583 92.875L133.183 93.4333C128.958 94.4667 124.925 96.725 122.492 99.7167C115.367 107.783 117.425 121.842 126.05 127.667C134.575 134.042 147.058 135.442 148.65 141.442C150.15 148.758 143.217 151.1 136.358 150.258C131.3 149.125 128.483 146.6 125.392 141.908L113.958 148.475C115.267 151.467 116.767 152.783 119.017 155.408C129.892 166.375 157.083 165.817 161.958 149.125C162.133 148.567 163.458 144.725 162.425 138.817L162.708 139.225ZM106.567 93.9417H92.5167C92.5167 106.05 92.4583 118.092 92.4583 130.225C92.4583 137.925 92.85 144.992 91.5917 147.167C89.5333 151.475 84.2083 150.925 81.8 150.158C79.325 148.942 78.0667 147.25 76.6083 144.817C76.2167 144.167 75.925 143.6 75.8167 143.6L64.4167 150.633C66.325 154.575 69.1083 157.958 72.7 160.108C78.0417 163.3 85.2167 164.333 92.7333 162.65C97.6333 161.233 101.858 158.325 104.05 153.825C107.25 148.017 106.567 140.883 106.542 132.917C106.608 120.075 106.542 107.225 106.542 94.2917L106.567 93.9417Z" fill="#DAFCFF"/>
</svg>
