<svg width="523" height="468" viewBox="0 0 523 468" fill="none" xmlns="http://www.w3.org/2000/svg">
<path fill-rule="evenodd" clip-rule="evenodd" d="M241.56 297.488L0 55.6278V35.0697L43.4807 0H68.8445L100.247 31.4418V37.4883L241.56 178.976H281.417L422.729 37.4883V31.4418L454.132 0H479.496L522.976 35.0697V55.6278L281.417 297.488H241.56ZM70.0525 15.7209H76.0915V21.7674H70.0525V15.7209ZM452.926 15.7209H446.887V21.7674H452.926V15.7209Z" fill="#DAFCFF"/>
<path d="M501.838 96.1393H523V154.765L440.845 237.023V252.744L378.039 315.627H321.273V276.93L501.838 96.1393Z" fill="#DAFCFF"/>
<path d="M443.285 238.232L513.338 168.093V205.581L443.285 273.302V238.232Z" fill="#DAFCFF"/>
<path d="M440.87 275.721V256.372L379.272 318.047H321.298V337.396L344.246 360.372V370.047L442.078 468H523V419.628L420.337 316.837V296.279L440.87 275.721Z" fill="#DAFCFF"/>
<path d="M446.885 394.232H452.924V400.278H446.885V394.232Z" fill="black"/>
<path d="M21.1616 96.1393H0V154.765L82.1554 237.023V252.744L144.961 315.627H201.727V276.93L21.1616 96.1393Z" fill="#DAFCFF"/>
<path d="M79.7147 238.232L9.66238 168.093V205.581L79.7147 273.302V238.232Z" fill="#DAFCFF"/>
<path d="M82.1302 275.721V256.372L143.728 318.047H201.702V337.396L178.754 360.372V370.047L80.9224 468H0V419.628L102.663 316.837V296.279L82.1302 275.721Z" fill="#DAFCFF"/>
<path d="M70.0523 394.232H76.0913V400.278H70.0523V394.232Z" fill="black"/>
<path d="M272.962 348.278H250.014V354.325L259.677 363.999H263.3L272.962 354.325V348.278Z" fill="#DAFCFF"/>
<path d="M272.962 370.046H250.014V376.092L259.677 385.767H263.3L272.962 376.092V370.046Z" fill="#DAFCFF" fill-opacity="0.5"/>
<path d="M272.962 391.813H250.014V397.86L259.677 407.534H263.3L272.962 397.86V391.813Z" fill="#DAFCFF" fill-opacity="0.25"/>
</svg>
