<svg width="401" height="357" viewBox="0 0 401 357" fill="none" xmlns="http://www.w3.org/2000/svg">
<path d="M269.695 11.5889L275.498 18.8135L275.623 18.9678L275.819 18.9951L400.5 36.4346V183.049L182.5 154.561V0.566406L269.695 11.5889Z" stroke="#DAFCFF"/>
<path d="M176 6L263.959 17.119L269.888 24.5L395 42V189.619L176 161L176 6Z" fill="#DAFCFF"/>
<path d="M257.695 24.5889L263.498 31.8135L263.623 31.9678L263.819 31.9951L388.5 49.4346V196.049L170.5 167.561V13.5664L257.695 24.5889Z" fill="#060A0D" stroke="#DAFCFF"/>
<path d="M184.695 91.5889L190.498 98.8135L190.623 98.9678L190.819 98.9951L315.5 116.435V263.049L97.5 234.561V80.5664L184.695 91.5889Z" stroke="#DAFCFF"/>
<path d="M91 86L178.959 97.119L184.888 104.5L310 122V269.619L91 241L91 86Z" fill="#DAFCFF"/>
<path d="M172.695 104.589L178.498 111.813L178.623 111.968L178.819 111.995L303.5 129.435V276.049L85.5 247.561V93.5664L172.695 104.589Z" fill="#060A0D" stroke="#DAFCFF"/>
<path d="M99.6953 171.589L105.498 178.813L105.623 178.968L105.819 178.995L230.5 196.435V343.049L12.5 314.561V160.566L99.6953 171.589Z" stroke="#DAFCFF"/>
<path d="M6 166L93.9588 177.119L99.8882 184.5L225 202V349.619L6 321L6 166Z" fill="#DAFCFF"/>
<path d="M87.6953 184.589L93.498 191.813L93.623 191.968L93.8193 191.995L218.5 209.435V356.049L0.5 327.561V173.566L87.6953 184.589Z" fill="#060A0D" stroke="#DAFCFF"/>
</svg>
